<svg width="1024" height="1024" xmlns="http://www.w3.org/2000/svg">
    <circle style="fill:#37abc8;fill-opacity:1;stroke:none;stroke-width:6.02088;stroke-linecap:round;stroke-linejoin:round;stroke-dasharray:none" cx="251.286" cy="323.044" r="66.23"/>
    <circle style="fill:#37abc8;fill-opacity:1;stroke:none;stroke-width:6.02088;stroke-linecap:round;stroke-linejoin:round;stroke-dasharray:none" cx="774.506" cy="321.5" r="66.23"/>
    <circle style="fill:#37abc8;fill-opacity:1;stroke:none;stroke-width:6.02088;stroke-linecap:round;stroke-linejoin:round;stroke-dasharray:none" cx="513.429" cy="237.595" r="75.261"/>
    <rect style="fill:#37abc8;fill-opacity:1;stroke:none;stroke-width:6.02088;stroke-linecap:round;stroke-linejoin:round;stroke-dasharray:none" width="197.835" height="277.56" x="145.378" y="425.483" ry="98.918"/>
    <rect style="fill:#37abc8;fill-opacity:1;stroke:none;stroke-width:6.02088;stroke-linecap:round;stroke-linejoin:round;stroke-dasharray:none" width="197.835" height="277.56" x="680.786" y="427.074" ry="98.918"/>
    <rect style="fill:#37abc8;fill-opacity:1;stroke:none;stroke-width:6;stroke-linecap:round;stroke-linejoin:round;stroke-dasharray:none" width="248.666" height="289.762" x="387.667" y="363.707" ry="103.266" rx="124.333"/>
    <ellipse style="fill:#e00028;fill-opacity:1;stroke:none;stroke-width:6.02088;stroke-linecap:round;stroke-linejoin:round;stroke-dasharray:none" cx="512.506" cy="593.298" rx="250.07" ry="65.522"/>
    <path d="M155.918 879.015q-16.704 0-29.76-6.72-13.056-6.912-20.544-19.008-7.296-12.096-7.296-27.456 0-15.552 7.296-27.456 7.488-12.096 20.544-18.816 13.056-6.912 29.76-6.912 16.32 0 28.416 6.912 12.096 6.72 17.856 19.392l-23.232 12.48q-4.032-7.296-10.176-10.752-5.952-3.456-13.056-3.456-7.68 0-13.824 3.456t-9.792 9.792q-3.456 6.336-3.456 15.36t3.456 15.36q3.648 6.336 9.792 9.792 6.144 3.456 13.824 3.456 7.104 0 13.056-3.264 6.144-3.456 10.176-10.944l23.232 12.672q-5.76 12.48-17.856 19.392-12.096 6.72-28.416 6.72zm111.396 0q-16.512 0-29.376-6.912-12.672-6.912-20.16-18.816-7.296-12.096-7.296-27.456 0-15.552 7.296-27.456 7.488-12.096 20.16-18.816 12.864-6.912 29.376-6.912 16.32 0 29.184 6.912 12.864 6.72 20.16 18.624 7.296 11.904 7.296 27.648 0 15.36-7.296 27.456-7.296 11.904-20.16 18.816-12.864 6.912-29.184 6.912zm0-24.576q7.488 0 13.44-3.456 5.952-3.456 9.408-9.792 3.456-6.528 3.456-15.36 0-9.024-3.456-15.36t-9.408-9.792q-5.952-3.456-13.44-3.456-7.488 0-13.44 3.456-5.952 3.456-9.6 9.792-3.456 6.336-3.456 15.36 0 8.832 3.456 15.36 3.648 6.336 9.6 9.792 5.952 3.456 13.44 3.456zm76.608 23.04V774.183h28.608v28.608l-5.376-8.64q5.568-10.368 15.936-15.936t23.616-5.568q12.288 0 21.888 4.992 9.792 4.8 15.36 14.976 5.568 9.984 5.568 25.728v59.136H419.57v-54.528q0-12.48-5.568-18.432-5.376-5.952-15.36-5.952-7.104 0-12.864 3.072-5.568 2.88-8.832 9.024-3.072 6.144-3.072 15.744v51.072zm158.784 0-43.392-103.296h30.912l36.096 88.896h-15.36l37.44-88.896h28.8L533.618 877.48zm86.784 0V774.183h29.952V877.48zm14.976-117.696q-8.256 0-13.44-4.8-5.184-4.8-5.184-11.904t5.184-11.904q5.184-4.8 13.44-4.8t13.44 4.608q5.184 4.416 5.184 11.52 0 7.488-5.184 12.48-4.992 4.8-13.44 4.8zm70.848 117.696-43.392-103.296h30.912l36.096 88.896h-15.36l37.44-88.896h28.8L706.226 877.48zm86.784 0V774.183h29.952V877.48zm14.976-117.696q-8.256 0-13.44-4.8-5.184-4.8-5.184-11.904t5.184-11.904q5.184-4.8 13.44-4.8t13.44 4.608q5.184 4.416 5.184 11.52 0 7.488-5.184 12.48-4.992 4.8-13.44 4.8zm91.968 119.232q-16.512 0-29.376-6.912-12.672-6.912-20.16-18.816-7.296-12.096-7.296-27.456 0-15.552 7.296-27.456 7.488-12.096 20.16-18.816 12.864-6.912 29.376-6.912 16.32 0 29.184 6.912 12.864 6.72 20.16 18.624 7.296 11.904 7.296 27.648 0 15.36-7.296 27.456-7.296 11.904-20.16 18.816-12.864 6.912-29.184 6.912zm0-24.576q7.488 0 13.44-3.456 5.952-3.456 9.408-9.792 3.456-6.528 3.456-15.36 0-9.024-3.456-15.36t-9.408-9.792q-5.952-3.456-13.44-3.456-7.488 0-13.44 3.456-5.952 3.456-9.6 9.792-3.456 6.336-3.456 15.36 0 8.832 3.456 15.36 3.648 6.336 9.6 9.792 5.952 3.456 13.44 3.456z" style="font-size:192px;font-family:Montserrat;-inkscape-font-specification:'Montserrat, @wght=700';font-variation-settings:'wght' 700;fill:#e00028;stroke-width:6;stroke-linecap:round;stroke-linejoin:round" aria-label="convivio"/>
</svg>
